<svg width="489" height="40" viewBox="0 0 489 40" fill="none" xmlns="http://www.w3.org/2000/svg">
<path d="M19.2668 0.890296C24.5428 0.890296 29.0886 2.7621 32.9043 6.50572L27.4634 11.9332C25.1551 9.66195 22.4386 8.52634 19.3139 8.52634C16.1263 8.52634 13.4098 9.66195 11.1644 11.9332C8.90323 14.1888 7.77266 16.9064 7.77266 20.0861C7.77266 23.2659 8.90323 25.9835 11.1644 28.2391C13.3941 30.4946 16.1106 31.6224 19.3139 31.6224C21.6692 31.6224 23.8126 30.9645 25.744 29.6488C27.5183 28.4427 28.8452 26.892 29.7245 24.9967H18.8899V17.7366H38.3922C38.8947 24.2057 37.0497 29.5157 32.8571 33.6665C29.0729 37.4102 24.5349 39.282 19.2432 39.282C13.9044 39.282 9.3743 37.4102 5.65284 33.6665C1.88428 29.9386 0 25.4118 0 20.0861C0 14.8075 1.88428 10.2728 5.65284 6.48223C9.39 2.70728 13.9201 0.81981 19.2432 0.81981L19.2668 0.890296Z" fill="#272525"/>
<path d="M52.3962 1.12525H60.0275V39H52.3962V1.12525Z" fill="#272525"/>
<path d="M98.2445 1.03127V8.62032H82.9818V16.2564H94.4288V23.8454H82.9818V39.047H75.3505V1.03127H98.2445Z" fill="#272525"/>
<path d="M137.074 1.12525V8.66731H127.747V39H120.092V8.66731H110.741V1.12525H137.074Z" fill="#272525"/>
<path d="M161.559 31.5519C162.658 31.5519 163.663 31.1682 164.574 30.4007C165.516 29.6175 165.987 28.7168 165.987 27.6987C165.987 26.2263 165.108 25.0985 163.349 24.3153C162.768 24.049 161.975 23.7749 160.97 23.493L160.358 23.3285L159.793 23.164C159.353 23.0544 158.992 22.9526 158.709 22.8586C156.228 22.0128 154.203 20.7048 152.632 18.9348C150.874 16.9769 149.994 14.7761 149.994 12.3326C149.994 9.13722 151.133 6.41174 153.41 4.15617C155.671 1.91627 158.403 0.796314 161.606 0.796314C164.511 0.796314 167.047 1.7518 169.214 3.66277C171.381 5.54241 172.661 7.89979 173.053 10.7349L165.469 12.3326C165.469 11.2831 165.092 10.3825 164.338 9.63063C163.585 8.87877 162.69 8.50284 161.653 8.50284C160.586 8.50284 159.675 8.87877 158.921 9.63063C158.152 10.3981 157.767 11.3066 157.767 12.3561C157.767 13.8285 158.599 15.0033 160.264 15.8804C160.876 16.2094 161.638 16.5148 162.548 16.7968C162.847 16.8907 163.224 17.0082 163.679 17.1492L164.221 17.2902L164.739 17.4546C167.314 18.1908 169.418 19.4204 171.051 21.1434C172.857 23.0387 173.76 25.2395 173.76 27.7457C173.76 30.8941 172.535 33.6117 170.086 35.8986C167.683 38.1542 164.865 39.282 161.63 39.282C158.678 39.282 156.04 38.3343 153.716 36.439C151.392 34.528 150.01 32.1628 149.57 29.3434L157.155 27.7457C157.155 28.7638 157.626 29.6645 158.568 30.4476C159.479 31.1995 160.491 31.5754 161.606 31.5754L161.559 31.5519Z" fill="#272525"/>
<path d="M228.689 10.8289C228.532 10.1554 228.195 9.59147 227.677 9.13722C227.111 8.66731 226.46 8.43235 225.722 8.43235C224.042 8.43235 223.06 9.18421 222.778 10.6879C222.699 11.0952 222.966 11.8862 223.578 13.061C224.473 14.7996 225.416 16.3268 226.405 17.6426C226.97 18.4101 227.739 19.3029 228.713 20.3211L230.008 21.6603C230.558 22.2399 231.021 22.7255 231.398 23.117C232.277 24.0725 232.968 24.7696 233.471 25.2081C233.612 24.5346 233.706 23.7279 233.753 22.7881C233.769 22.4905 233.785 22.0598 233.801 21.4959L233.824 20.8145L233.848 20.0861L240.984 19.9921C240.874 24.4406 240.348 27.7065 239.406 29.7898L239.665 29.9542L239.948 30.1422C240.184 30.2832 240.388 30.4085 240.56 30.5181C241.063 30.8157 241.518 31.0664 241.927 31.27C243.073 31.8339 244.086 32.1002 244.965 32.0688L244.941 39.1175C243.308 39.1175 241.667 38.7886 240.019 38.1307C239.391 37.8644 238.723 37.5433 238.017 37.1674C237.734 37.0107 237.428 36.8384 237.098 36.6505C236.894 36.5252 236.611 36.3529 236.25 36.1336C235.811 35.8829 235.426 35.6088 235.096 35.3112C233.683 36.9246 231.72 38.0524 229.208 38.6946C227.418 39.1488 225.8 39.3759 224.356 39.3759C220.823 39.3759 217.831 38.1855 215.382 35.8046C212.948 33.4551 211.731 30.5886 211.731 27.2053C211.778 25.0124 212.335 23.2345 213.403 21.8718C214.471 20.509 215.594 19.2638 216.771 18.136C216.881 18.0264 217.093 17.8541 217.407 17.6191C216.826 16.8203 216.292 15.763 215.806 14.4472C215.272 13.0218 214.989 11.7531 214.958 10.6409C214.958 8.24439 215.923 6.0828 217.855 4.15617C218.703 3.31033 219.826 2.55065 221.223 1.87711C222.84 1.10959 224.34 0.725828 225.722 0.725828C228.328 0.725828 230.637 1.5795 232.646 3.28684C234.531 4.88453 235.74 6.86599 236.274 9.2312L228.689 10.8289ZM224.379 31.9279C225.149 31.9279 226.067 31.7556 227.135 31.411C228.266 31.035 228.964 30.6434 229.231 30.2362V30.2597C228.792 29.8838 227.739 28.9439 226.075 27.4402C224.395 25.9365 223.029 24.3153 221.977 22.5767C221.286 23.0779 220.603 23.6653 219.928 24.3388C219.252 25.0124 218.938 26.007 218.985 27.3227C218.985 27.965 219.166 28.6385 219.527 29.3434C219.841 29.9386 220.218 30.4398 220.658 30.8471C221.396 31.5676 222.636 31.9279 224.379 31.9279Z" fill="#272525"/>
<path d="M302.957 25.6781L321.54 0.232422V39H313.909V23.305L302.957 38.3891L291.981 23.305V39H284.349V0.232422L302.957 25.6781Z" fill="#272525"/>
<path d="M359.781 1.03127V8.62032H344.518V16.2564H355.965V23.8454H344.518V31.4815H359.781V39.047H336.887V1.03127H359.781Z" fill="#272525"/>
<path d="M373.691 1.12525H386.08C390.099 1.12525 393.413 2.40967 396.019 4.97852C397.291 6.24727 398.194 7.44554 398.728 8.57333C399.372 9.95173 399.694 11.6199 399.694 13.5779V14.5647C399.694 17.1179 398.893 19.5222 397.291 21.7778C396.145 23.3755 394.63 24.5424 392.745 25.2786L401.578 39H392.251L381.345 22.2477V39H373.714L373.691 1.12525ZM386.81 19.1463C388.192 19.1463 389.377 18.6216 390.366 17.5721C391.34 16.5226 391.827 15.2695 391.827 13.8128C391.827 12.4344 391.324 11.2205 390.319 10.171C389.283 9.16855 387.713 8.66731 385.609 8.66731H381.322V19.1228H384.266V19.1463H386.81Z" fill="#272525"/>
<path d="M446.979 33.6665C443.21 37.3945 438.656 39.2585 433.318 39.2585C428.01 39.2428 423.48 37.3788 419.727 33.6665C415.959 29.9073 414.074 25.3804 414.074 20.0861C414.074 14.8075 415.959 10.2728 419.727 6.48223C423.512 2.70728 428.042 0.81981 433.318 0.81981L433.294 0.913792C438.507 0.913792 443.061 2.7856 446.955 6.52922L441.514 11.9567C439.222 9.70111 436.497 8.57333 433.341 8.57333C430.138 8.57333 427.421 9.70111 425.192 11.9567C422.931 14.2436 421.8 16.9612 421.8 20.1096C421.8 23.2893 422.931 26.007 425.192 28.2626C427.437 30.5025 430.154 31.6224 433.341 31.6224C436.544 31.6224 439.277 30.4946 441.538 28.2391L446.979 33.6665Z" fill="#272525"/>
<path d="M468.52 1.12525V16.2799H481.215V1.12525H488.823V39H481.215V23.8219H468.52V39H460.912V1.12525H468.52Z" fill="#272525"/>
</svg>
