<svg width="409" height="33" viewBox="0 0 409 33" fill="none" xmlns="http://www.w3.org/2000/svg">
<path d="M16.1206 0.706834C20.535 0.706834 24.3385 2.27685 27.5311 5.41688L22.9787 9.96927C21.0474 8.06423 18.7745 7.11171 16.16 7.11171C13.4929 7.11171 11.22 8.06423 9.34126 9.96927C7.44936 11.8612 6.50341 14.1407 6.50341 16.8077C6.50341 19.4748 7.44936 21.7542 9.34126 23.6461C11.2069 25.538 13.4798 26.484 16.16 26.484C18.1307 26.484 19.9241 25.9322 21.5401 24.8286C23.0247 23.8169 24.1349 22.5163 24.8706 20.9265H15.8053V14.837H32.1229C32.5433 20.2631 30.9996 24.7169 27.4917 28.1985C24.3254 31.3386 20.5284 32.9086 16.1009 32.9086C11.6339 32.9086 7.84351 31.3386 4.72975 28.1985C1.57658 25.0716 0 21.2747 0 16.8077C0 12.3801 1.57658 8.57662 4.72975 5.39717C7.85665 2.23087 11.647 0.647712 16.1009 0.647712L16.1206 0.706834Z" fill="#272525"/>
<path d="M43.8401 0.903907H50.2253V32.6721H43.8401V0.903907Z" fill="#272525"/>
<path d="M82.2016 0.825078V7.19054H69.4312V13.5954H79.009V19.9609H69.4312V32.7115H63.046V0.825078H82.2016Z" fill="#272525"/>
<path d="M114.69 0.903907V7.22995H106.886V32.6721H100.481V7.22995H92.6575V0.903907H114.69Z" fill="#272525"/>
<path d="M135.177 26.4249C136.097 26.4249 136.938 26.103 137.7 25.4592C138.488 24.8023 138.882 24.0469 138.882 23.1929C138.882 21.9579 138.146 21.0119 136.675 20.355C136.189 20.1317 135.525 19.9018 134.684 19.6653L134.172 19.5273L133.699 19.3894C133.331 19.2974 133.029 19.212 132.793 19.1332C130.717 18.4237 129.022 17.3267 127.708 15.842C126.237 14.1998 125.501 12.3539 125.501 10.3043C125.501 7.6241 126.453 5.33805 128.358 3.44615C130.25 1.56739 132.536 0.628005 135.217 0.628005C137.647 0.628005 139.769 1.42944 141.582 3.0323C143.395 4.60888 144.466 6.58618 144.794 8.9642L138.449 10.3043C138.449 9.42403 138.133 8.66859 137.503 8.03795C136.872 7.40732 136.123 7.092 135.256 7.092C134.363 7.092 133.601 7.40732 132.97 8.03795C132.326 8.68173 132.004 9.44374 132.004 10.324C132.004 11.559 132.701 12.5444 134.093 13.2801C134.606 13.556 135.243 13.8122 136.005 14.0487C136.255 14.1275 136.57 14.226 136.951 14.3443L137.404 14.4625L137.838 14.6005C139.992 15.218 141.753 16.2493 143.119 17.6945C144.63 19.2843 145.386 21.1302 145.386 23.2323C145.386 25.8731 144.361 28.1525 142.311 30.0707C140.301 31.9626 137.943 32.9086 135.236 32.9086C132.766 32.9086 130.559 32.1137 128.615 30.524C126.67 28.9211 125.514 26.9373 125.146 24.5724L131.492 23.2323C131.492 24.0863 131.886 24.8417 132.674 25.4986C133.436 26.1293 134.284 26.4446 135.217 26.4446L135.177 26.4249Z" fill="#272525"/>
<path d="M191.345 9.04303C191.214 8.47808 190.932 8.00511 190.498 7.6241C190.025 7.22995 189.48 7.03288 188.862 7.03288C187.456 7.03288 186.635 7.66352 186.399 8.92478C186.333 9.26638 186.556 9.92986 187.069 10.9152C187.818 12.3736 188.606 13.6545 189.434 14.7581C189.907 15.4019 190.55 16.1508 191.365 17.0048L192.449 18.1281C192.909 18.6142 193.296 19.0215 193.612 19.3499C194.347 20.1514 194.926 20.736 195.346 21.1039C195.464 20.539 195.543 19.8623 195.582 19.074C195.596 18.8244 195.609 18.4631 195.622 17.9901L195.642 17.4186L195.661 16.8077L201.633 16.7289C201.541 20.4601 201.1 23.1994 200.312 24.9468L200.529 25.0848L200.765 25.2424C200.963 25.3607 201.133 25.4658 201.278 25.5578C201.698 25.8074 202.079 26.0176 202.421 26.1884C203.38 26.6614 204.227 26.8847 204.963 26.8584L204.943 32.7706C203.577 32.7706 202.204 32.4947 200.825 31.9429C200.299 31.7196 199.741 31.4502 199.149 31.1349C198.913 31.0035 198.657 30.859 198.381 30.7014C198.21 30.5963 197.974 30.4517 197.671 30.2678C197.304 30.0576 196.982 29.8277 196.706 29.578C195.523 30.9313 193.881 31.8772 191.779 32.4159C190.281 32.7969 188.928 32.9874 187.719 32.9874C184.763 32.9874 182.26 31.9889 180.211 29.9919C178.174 28.0212 177.156 25.6169 177.156 22.779C177.196 20.9397 177.662 19.4485 178.555 18.3055C179.449 17.1624 180.388 16.118 181.373 15.172C181.465 15.08 181.643 14.9355 181.906 14.7384C181.419 14.0684 180.973 13.1816 180.565 12.078C180.119 10.8824 179.882 9.81818 179.856 8.88537C179.856 6.87522 180.664 5.06215 182.28 3.44615C182.989 2.73669 183.929 2.09948 185.098 1.53454C186.451 0.890769 187.706 0.568883 188.862 0.568883C191.043 0.568883 192.974 1.28492 194.656 2.71698C196.233 4.05708 197.244 5.71906 197.691 7.70293L191.345 9.04303ZM187.739 26.7402C188.383 26.7402 189.151 26.5957 190.045 26.3066C190.991 25.9913 191.575 25.6629 191.799 25.3213V25.341C191.431 25.0257 190.55 24.2374 189.158 22.9761C187.752 21.7148 186.609 20.355 185.729 18.8967C185.151 19.3171 184.579 19.8098 184.014 20.3747C183.449 20.9397 183.187 21.7739 183.226 22.8776C183.226 23.4162 183.377 23.9812 183.679 24.5724C183.942 25.0716 184.257 25.4921 184.625 25.8337C185.243 26.438 186.281 26.7402 187.739 26.7402Z" fill="#272525"/>
<path d="M253.485 21.498L269.034 0.155029V32.6721H262.649V19.5076L253.485 32.1597L244.301 19.5076V32.6721H237.916V0.155029L253.485 21.498Z" fill="#272525"/>
<path d="M301.03 0.825078V7.19054H288.26V13.5954H297.837V19.9609H288.26V26.3658H301.03V32.7115H281.874V0.825078H301.03Z" fill="#272525"/>
<path d="M312.668 0.903907H323.034C326.398 0.903907 329.17 1.98124 331.351 4.13591C332.415 5.2001 333.17 6.20517 333.617 7.15112C334.156 8.30729 334.425 9.70651 334.425 11.3488V12.1765C334.425 14.318 333.755 16.3347 332.415 18.2266C331.456 19.5667 330.188 20.5455 328.611 21.163L336.002 32.6721H328.198L319.073 18.6208V32.6721H312.688L312.668 0.903907ZM323.645 16.0194C324.801 16.0194 325.793 15.5793 326.621 14.699C327.436 13.8188 327.843 12.7677 327.843 11.5459C327.843 10.3897 327.422 9.37148 326.582 8.49122C325.715 7.65038 324.401 7.22995 322.64 7.22995H319.053V15.9997H321.517V16.0194H323.645Z" fill="#272525"/>
<path d="M373.989 28.1985C370.836 31.3254 367.026 32.8889 362.559 32.8889C358.118 32.8757 354.327 31.3123 351.187 28.1985C348.034 25.0454 346.458 21.2484 346.458 16.8077C346.458 12.3801 348.034 8.57662 351.187 5.39717C354.354 2.23087 358.144 0.647712 362.559 0.647712L362.539 0.726541C366.901 0.726541 370.711 2.29656 373.969 5.43659L369.417 9.98898C367.499 8.09707 365.219 7.15112 362.578 7.15112C359.898 7.15112 357.625 8.09707 355.759 9.98898C353.868 11.9072 352.922 14.1866 352.922 16.8274C352.922 19.4945 353.868 21.7739 355.759 23.6658C357.638 25.5446 359.911 26.484 362.578 26.484C365.258 26.484 367.544 25.538 369.436 23.6461L373.989 28.1985Z" fill="#272525"/>
<path d="M392.012 0.903907V13.6151H402.635V0.903907H409V32.6721H402.635V19.9412H392.012V32.6721H385.647V0.903907H392.012Z" fill="#272525"/>
</svg>
