<svg width="277" height="23" viewBox="0 0 277 23" fill="none" xmlns="http://www.w3.org/2000/svg">
<path d="M10.9179 0.826887C13.9076 0.826887 16.4836 1.8902 18.6458 4.01682L15.5626 7.09998C14.2546 5.80977 12.7152 5.16466 10.9445 5.16466C9.13825 5.16466 7.5989 5.80977 6.32648 7.09998C5.04517 8.38129 4.40451 9.92509 4.40451 11.7314C4.40451 13.5377 5.04517 15.0815 6.32648 16.3628C7.59 17.6441 9.12935 18.2848 10.9445 18.2848C12.2792 18.2848 13.4938 17.9111 14.5883 17.1636C15.5938 16.4785 16.3456 15.5976 16.8439 14.5209H10.7043V10.3967H21.7556C22.0404 14.0716 20.9948 17.088 18.6191 19.446C16.4747 21.5726 13.9031 22.6359 10.9045 22.6359C7.87918 22.6359 5.31211 21.5726 3.20328 19.446C1.06776 17.3282 0 14.7567 0 11.7314C0 8.73276 1.06776 6.15679 3.20328 4.00347C5.32101 1.85906 7.88808 0.786846 10.9045 0.786846L10.9179 0.826887Z" fill="#272525"/>
<path d="M29.6912 0.960357H34.0156V22.4757H29.6912V0.960357Z" fill="#272525"/>
<path d="M55.672 0.906969V5.21805H47.0231V9.55583H53.5097V13.8669H47.0231V22.5024H42.6987V0.906969H55.672Z" fill="#272525"/>
<path d="M77.6753 0.960357V5.24474H72.3899V22.4757H68.0521V5.24474H62.7533V0.960357H77.6753Z" fill="#272525"/>
<path d="M91.5503 18.2447C92.1732 18.2447 92.7426 18.0267 93.2587 17.5907C93.7926 17.1458 94.0595 16.6342 94.0595 16.0558C94.0595 15.2194 93.5613 14.5787 92.5647 14.1338C92.2355 13.9826 91.7861 13.8269 91.2166 13.6667L90.8696 13.5733L90.5493 13.4798C90.3001 13.4176 90.0955 13.3597 89.9353 13.3063C88.5294 12.8258 87.3816 12.0829 86.4918 11.0774C85.4952 9.96514 84.9969 8.71497 84.9969 7.32688C84.9969 5.51168 85.642 3.96343 86.9323 2.68212C88.2136 1.40971 89.7618 0.773499 91.577 0.773499C93.2231 0.773499 94.6602 1.31628 95.8881 2.40183C97.116 3.46959 97.8412 4.80874 98.0636 6.41928L93.7659 7.32688C93.7659 6.73071 93.5524 6.21908 93.1253 5.79197C92.6982 5.36487 92.191 5.15132 91.6037 5.15132C90.9986 5.15132 90.4826 5.36487 90.0554 5.79197C89.6194 6.22797 89.4014 6.74406 89.4014 7.34022C89.4014 8.17664 89.873 8.84399 90.8162 9.34228C91.1632 9.52913 91.5948 9.70264 92.1109 9.86281C92.28 9.9162 92.4935 9.98293 92.7515 10.063L93.0585 10.1431L93.3522 10.2365C94.8114 10.6547 96.0038 11.3532 96.9292 12.332C97.9524 13.4087 98.4641 14.6588 98.4641 16.0825C98.4641 17.871 97.77 19.4148 96.3819 20.7139C95.0205 21.9952 93.4233 22.6359 91.5904 22.6359C89.9175 22.6359 88.4227 22.0976 87.1058 21.0209C85.7889 19.9353 85.0058 18.5917 84.7567 16.9901L89.0544 16.0825C89.0544 16.6609 89.3214 17.1725 89.8552 17.6174C90.3713 18.0445 90.9453 18.2581 91.577 18.2581L91.5503 18.2447Z" fill="#272525"/>
<path d="M129.591 6.47267C129.502 6.09005 129.311 5.76973 129.017 5.51168C128.697 5.24475 128.327 5.11127 127.909 5.11127C126.957 5.11127 126.401 5.53838 126.241 6.39259C126.196 6.62394 126.348 7.07328 126.695 7.74063C127.202 8.72831 127.736 9.59587 128.296 10.3433C128.617 10.7793 129.053 11.2865 129.604 11.8649L130.338 12.6256C130.65 12.9549 130.912 13.2307 131.126 13.4532C131.624 13.9959 132.016 14.3919 132.3 14.641C132.38 14.2584 132.434 13.8002 132.46 13.2663C132.469 13.0972 132.478 12.8525 132.487 12.5322L132.501 12.1451L132.514 11.7314L136.558 11.678C136.496 14.205 136.198 16.0603 135.664 17.2437L135.811 17.3371L135.971 17.4439C136.104 17.524 136.22 17.5952 136.318 17.6575C136.602 17.8265 136.861 17.9689 137.092 18.0846C137.741 18.4049 138.315 18.5562 138.814 18.5384L138.8 22.5425C137.875 22.5425 136.945 22.3556 136.011 21.9819C135.655 21.8306 135.277 21.6482 134.876 21.4347C134.716 21.3457 134.543 21.2478 134.356 21.141C134.24 21.0698 134.08 20.972 133.875 20.8474C133.626 20.705 133.408 20.5493 133.221 20.3802C132.42 21.2967 131.308 21.9374 129.885 22.3022C128.87 22.5603 127.954 22.6893 127.135 22.6893C125.133 22.6893 123.438 22.013 122.05 20.6605C120.671 19.3258 119.981 17.6975 119.981 15.7755C120.008 14.5298 120.324 13.5199 120.929 12.7458C121.534 11.9716 122.17 11.2642 122.837 10.6236C122.9 10.5613 123.02 10.4634 123.198 10.33C122.868 9.87615 122.566 9.27554 122.29 8.52811C121.988 7.71839 121.827 6.99765 121.81 6.36589C121.81 5.0045 122.357 3.77657 123.451 2.68212C123.932 2.20163 124.568 1.77008 125.36 1.38746C126.276 0.951459 127.126 0.733458 127.909 0.733458C129.386 0.733458 130.694 1.2184 131.833 2.18828C132.901 3.09588 133.586 4.22147 133.889 5.56507L129.591 6.47267ZM127.148 18.4583C127.584 18.4583 128.105 18.3604 128.71 18.1646C129.351 17.9511 129.747 17.7286 129.898 17.4973V17.5106C129.649 17.2971 129.053 16.7632 128.109 15.909C127.157 15.0548 126.383 14.1338 125.787 13.1462C125.395 13.4309 125.008 13.7646 124.626 14.1472C124.243 14.5298 124.065 15.0948 124.092 15.8423C124.092 16.2071 124.194 16.5897 124.399 16.9901C124.577 17.3282 124.79 17.613 125.04 17.8443C125.458 18.2536 126.161 18.4583 127.148 18.4583Z" fill="#272525"/>
<path d="M171.676 14.908L182.206 0.453171V22.4757H177.882V13.5599L171.676 22.1287L165.456 13.5599V22.4757H161.131V0.453171L171.676 14.908Z" fill="#272525"/>
<path d="M203.876 0.906969V5.21805H195.227V9.55583H201.714V13.8669H195.227V18.2047H203.876V22.5024H190.903V0.906969H203.876Z" fill="#272525"/>
<path d="M211.758 0.960357H218.779C221.057 0.960357 222.934 1.68999 224.411 3.14927C225.132 3.87 225.644 4.5507 225.946 5.19136C226.311 5.97438 226.493 6.92202 226.493 8.03427V8.59484C226.493 10.0452 226.04 11.4111 225.132 12.6924C224.482 13.6 223.624 14.2629 222.556 14.6811L227.561 22.4757H222.276L216.096 12.9593V22.4757H211.772L211.758 0.960357ZM219.193 11.1975C219.976 11.1975 220.647 10.8994 221.208 10.3033C221.76 9.70709 222.035 8.99525 222.035 8.16774C222.035 7.38471 221.751 6.69512 221.181 6.09895C220.594 5.52948 219.704 5.24474 218.512 5.24474H216.083V11.1842H217.751V11.1975H219.193Z" fill="#272525"/>
<path d="M253.288 19.446C251.153 21.5637 248.572 22.6225 245.547 22.6225C242.539 22.6136 239.972 21.5548 237.846 19.446C235.71 17.3104 234.642 14.7389 234.642 11.7314C234.642 8.73276 235.71 6.15679 237.846 4.00347C239.99 1.85906 242.557 0.786846 245.547 0.786846L245.534 0.840234C248.488 0.840234 251.068 1.90355 253.275 4.03017L250.192 7.11333C248.893 5.83201 247.349 5.19136 245.56 5.19136C243.745 5.19136 242.206 5.83201 240.942 7.11333C239.661 8.41243 239.02 9.95624 239.02 11.7447C239.02 13.551 239.661 15.0948 240.942 16.3761C242.215 17.6486 243.754 18.2848 245.56 18.2848C247.376 18.2848 248.924 17.6441 250.205 16.3628L253.288 19.446Z" fill="#272525"/>
<path d="M265.495 0.960357V9.56917H272.689V0.960357H277V22.4757H272.689V13.8536H265.495V22.4757H261.184V0.960357H265.495Z" fill="#272525"/>
</svg>
