<svg width="173" height="133" viewBox="0 0 173 133" fill="none" xmlns="http://www.w3.org/2000/svg">
<rect width="173" height="133" fill="#E5E5E5"/>
<g id="2. &#208;&#157;&#208;&#176;&#208;&#177;&#208;&#190;&#209;&#128;&#209;&#139; 1000" clip-path="url(#clip0_0_1)">
<rect width="1000" height="3399" transform="translate(-113 -100)" fill="#FAFAFA"/>
<g id="00. first screen">
<g id="bg">
<path id="bg shadow" opacity="0.19" d="M-113.002 -103H886.999V682.138C886.999 682.138 710.487 745.668 375.532 618.421C40.5771 491.173 -113.002 787.703 -113.002 787.703V-103Z" fill="url(#paint0_linear_0_1)" fill-opacity="0.5"/>
<g id="bg color">
<path d="M-113.002 -103H886.999V569.095C886.999 569.095 823.309 785.456 488.354 672.945C153.398 560.433 -113.002 672.945 -113.002 672.945V-103Z" fill="url(#paint1_linear_0_1)"/>
</g>
</g>
</g>
<g id="01.menu">
<rect id="bg_2" x="-113" width="1000" height="100" fill="#FAFBFD" fill-opacity="0.44"/>
<g id="active menu">
<g id="Rectangle 16" filter="url(#filter0_dd_0_1)">
<rect x="17" width="139" height="100" rx="6" fill="#272525"/>
</g>
<rect id="Rectangle 17" x="17" y="110" width="139" height="8" rx="4" fill="#272525"/>
</g>
<g id="nav">
<path id="&#208;&#146;&#209;&#129;&#208;&#181; &#209;&#130;&#208;&#190;&#208;&#178;&#208;&#176;&#209;&#128;&#209;&#139;" d="M45.892 50.466C46.924 51.126 47.44 52.074 47.44 53.31C47.44 54.402 47.05 55.29 46.27 55.974C45.49 56.658 44.524 57 43.372 57H38.08V44.4H43.012C44.14 44.4 45.082 44.736 45.838 45.408C46.606 46.068 46.99 46.932 46.99 48C46.99 49.008 46.624 49.83 45.892 50.466ZM43.012 47.1H40.96V49.332H43.012C43.336 49.332 43.6 49.23 43.804 49.026C44.008 48.81 44.11 48.54 44.11 48.216C44.11 47.892 44.008 47.628 43.804 47.424C43.6 47.208 43.336 47.1 43.012 47.1ZM43.372 54.3C43.732 54.3 44.02 54.192 44.236 53.976C44.452 53.748 44.56 53.454 44.56 53.094C44.56 52.734 44.452 52.446 44.236 52.23C44.02 52.002 43.732 51.888 43.372 51.888H40.96V54.3H43.372ZM53.2788 57.252C51.9108 57.252 50.7708 56.796 49.8588 55.884C48.9588 54.972 48.5088 53.844 48.5088 52.5C48.5088 51.156 48.9588 50.028 49.8588 49.116C50.7708 48.204 51.9108 47.748 53.2788 47.748C54.1428 47.748 54.9348 47.958 55.6548 48.378C56.3868 48.798 56.9508 49.356 57.3468 50.052L54.9888 51.42C54.6648 50.748 54.0828 50.412 53.2428 50.412C52.6548 50.412 52.1688 50.61 51.7848 51.006C51.4008 51.39 51.2088 51.888 51.2088 52.5C51.2088 53.112 51.4008 53.616 51.7848 54.012C52.1688 54.396 52.6548 54.588 53.2428 54.588C54.0948 54.588 54.6768 54.252 54.9888 53.58L57.3468 54.93C56.9508 55.638 56.3928 56.202 55.6728 56.622C54.9528 57.042 54.1548 57.252 53.2788 57.252ZM60.6696 53.58C60.9816 54.42 61.7016 54.84 62.8296 54.84C63.5616 54.84 64.1376 54.612 64.5576 54.156L66.7176 55.398C65.8296 56.634 64.5216 57.252 62.7936 57.252C61.2816 57.252 60.0696 56.802 59.1576 55.902C58.2576 55.002 57.8076 53.868 57.8076 52.5C57.8076 51.144 58.2516 50.016 59.1396 49.116C60.0396 48.204 61.1916 47.748 62.5956 47.748C63.9036 47.748 64.9896 48.204 65.8536 49.116C66.7296 50.016 67.1676 51.144 67.1676 52.5C67.1676 52.884 67.1316 53.244 67.0596 53.58H60.6696ZM60.6156 51.564H64.4856C64.2216 50.616 63.5856 50.142 62.5776 50.142C61.5336 50.142 60.8796 50.616 60.6156 51.564ZM80.489 48V50.592H77.807V57H75.107V50.592H72.389V48H80.489ZM89.0065 55.884C88.0825 56.796 86.9545 57.252 85.6225 57.252C84.2905 57.252 83.1625 56.796 82.2385 55.884C81.3145 54.96 80.8525 53.832 80.8525 52.5C80.8525 51.168 81.3145 50.046 82.2385 49.134C83.1625 48.21 84.2905 47.748 85.6225 47.748C86.9545 47.748 88.0825 48.21 89.0065 49.134C89.9305 50.046 90.3925 51.168 90.3925 52.5C90.3925 53.832 89.9305 54.96 89.0065 55.884ZM84.1465 54.03C84.5425 54.426 85.0345 54.624 85.6225 54.624C86.2105 54.624 86.7025 54.426 87.0985 54.03C87.4945 53.634 87.6925 53.124 87.6925 52.5C87.6925 51.876 87.4945 51.366 87.0985 50.97C86.7025 50.574 86.2105 50.376 85.6225 50.376C85.0345 50.376 84.5425 50.574 84.1465 50.97C83.7505 51.366 83.5525 51.876 83.5525 52.5C83.5525 53.124 83.7505 53.634 84.1465 54.03ZM98.6337 52.392C99.4377 52.824 99.8397 53.502 99.8397 54.426C99.8397 55.194 99.5697 55.818 99.0297 56.298C98.5017 56.766 97.7517 57 96.7797 57H91.9197V48H96.4197C97.3917 48 98.1417 48.24 98.6697 48.72C99.2097 49.188 99.4797 49.806 99.4797 50.574C99.4797 51.366 99.1977 51.972 98.6337 52.392ZM96.1317 50.16H94.4397V51.42H96.1317C96.6597 51.42 96.9237 51.216 96.9237 50.808C96.9237 50.376 96.6597 50.16 96.1317 50.16ZM96.4197 54.768C96.9477 54.768 97.2117 54.546 97.2117 54.102C97.2117 53.682 96.9477 53.472 96.4197 53.472H94.4397V54.768H96.4197ZM107.717 48H110.417V57H107.717V56.154C107.081 56.886 106.187 57.252 105.035 57.252C103.847 57.252 102.833 56.796 101.993 55.884C101.153 54.96 100.733 53.832 100.733 52.5C100.733 51.168 101.153 50.046 101.993 49.134C102.833 48.21 103.847 47.748 105.035 47.748C106.187 47.748 107.081 48.114 107.717 48.846V48ZM104.027 54.102C104.423 54.498 104.939 54.696 105.575 54.696C106.211 54.696 106.727 54.498 107.123 54.102C107.519 53.706 107.717 53.172 107.717 52.5C107.717 51.828 107.519 51.294 107.123 50.898C106.727 50.502 106.211 50.304 105.575 50.304C104.939 50.304 104.423 50.502 104.027 50.898C103.631 51.294 103.433 51.828 103.433 52.5C103.433 53.172 103.631 53.706 104.027 54.102ZM117.78 47.748C118.968 47.748 119.982 48.21 120.822 49.134C121.662 50.046 122.082 51.168 122.082 52.5C122.082 53.832 121.662 54.96 120.822 55.884C119.982 56.796 118.968 57.252 117.78 57.252C116.628 57.252 115.734 56.886 115.098 56.154V60.6H112.398V48H115.098V48.846C115.734 48.114 116.628 47.748 117.78 47.748ZM115.692 54.102C116.1 54.498 116.616 54.696 117.24 54.696C117.864 54.696 118.374 54.498 118.77 54.102C119.178 53.706 119.382 53.172 119.382 52.5C119.382 51.828 119.178 51.294 118.77 50.898C118.374 50.502 117.864 50.304 117.24 50.304C116.616 50.304 116.1 50.502 115.692 50.898C115.296 51.294 115.098 51.828 115.098 52.5C115.098 53.172 115.296 53.706 115.692 54.102ZM127.825 50.7C128.905 50.7 129.763 50.988 130.399 51.564C131.035 52.14 131.353 52.902 131.353 53.85C131.353 54.798 131.035 55.56 130.399 56.136C129.763 56.712 128.905 57 127.825 57H123.613V48H126.313V50.7H127.825ZM132.253 48H134.953V57H132.253V48ZM127.843 54.66C128.107 54.66 128.317 54.588 128.473 54.444C128.641 54.288 128.725 54.09 128.725 53.85C128.725 53.61 128.641 53.418 128.473 53.274C128.317 53.118 128.107 53.04 127.843 53.04H126.313V54.66H127.843Z" fill="#FAFBFD"/>
</g>
</g>
</g>
<defs>
<filter id="filter0_dd_0_1" x="0.94344" y="-1.43051e-06" width="171.113" height="132.113" filterUnits="userSpaceOnUse" color-interpolation-filters="sRGB">
<feFlood flood-opacity="0" result="BackgroundImageFix"/>
<feColorMatrix in="SourceAlpha" type="matrix" values="0 0 0 0 0 0 0 0 0 0 0 0 0 0 0 0 0 0 127 0" result="hardAlpha"/>
<feMorphology radius="4.01414" operator="erode" in="SourceAlpha" result="effect1_dropShadow_0_1"/>
<feOffset dy="8.02828"/>
<feGaussianBlur stdDeviation="4.01414"/>
<feColorMatrix type="matrix" values="0 0 0 0 0.101961 0 0 0 0 0.12549 0 0 0 0 0.172549 0 0 0 0.04 0"/>
<feBlend mode="normal" in2="BackgroundImageFix" result="effect1_dropShadow_0_1"/>
<feColorMatrix in="SourceAlpha" type="matrix" values="0 0 0 0 0 0 0 0 0 0 0 0 0 0 0 0 0 0 127 0" result="hardAlpha"/>
<feMorphology radius="4.01414" operator="erode" in="SourceAlpha" result="effect2_dropShadow_0_1"/>
<feOffset dy="16.0566"/>
<feGaussianBlur stdDeviation="10.0353"/>
<feColorMatrix type="matrix" values="0 0 0 0 0.101961 0 0 0 0 0.12549 0 0 0 0 0.172549 0 0 0 0.1 0"/>
<feBlend mode="normal" in2="effect1_dropShadow_0_1" result="effect2_dropShadow_0_1"/>
<feBlend mode="normal" in="SourceGraphic" in2="effect2_dropShadow_0_1" result="shape"/>
</filter>
<linearGradient id="paint0_linear_0_1" x1="-212.152" y1="872.595" x2="729.979" y2="-348.954" gradientUnits="userSpaceOnUse">
<stop stop-color="#9796F0"/>
<stop offset="1" stop-color="#FBC7D4"/>
</linearGradient>
<linearGradient id="paint1_linear_0_1" x1="-261.078" y1="760.391" x2="528.437" y2="-447.801" gradientUnits="userSpaceOnUse">
<stop stop-color="#9796F0"/>
<stop offset="1" stop-color="#FFE0E8"/>
</linearGradient>
<clipPath id="clip0_0_1">
<rect width="1000" height="3399" fill="white" transform="translate(-113 -100)"/>
</clipPath>
</defs>
</svg>
