<svg width="34" height="34" viewBox="0 0 34 34" fill="none" xmlns="http://www.w3.org/2000/svg">
<path fill-rule="evenodd" clip-rule="evenodd" d="M4.2526 11.3333H29.7526C30.535 11.3333 31.1693 10.6991 31.1693 9.91666C31.1693 9.13426 30.535 8.5 29.7526 8.5H4.2526C3.4702 8.5 2.83594 9.13426 2.83594 9.91666C2.83594 10.6991 3.4702 11.3333 4.2526 11.3333ZM29.7527 22.6663H4.25269C3.47028 22.6663 2.83602 23.3006 2.83602 24.083C2.83602 24.8654 3.47028 25.4997 4.25269 25.4997H29.7527C30.5351 25.4997 31.1694 24.8654 31.1694 24.083C31.1694 23.3006 30.5351 22.6663 29.7527 22.6663ZM29.7527 15.5837H4.25269C3.47028 15.5837 2.83602 16.2179 2.83602 17.0003C2.83602 17.7828 3.47028 18.417 4.25269 18.417H29.7527C30.5351 18.417 31.1694 17.7828 31.1694 17.0003C31.1694 16.2179 30.5351 15.5837 29.7527 15.5837Z" fill="#272525"/>
</svg>
