<svg width="24" height="24" viewBox="0 0 24 24" fill="none" xmlns="http://www.w3.org/2000/svg">
<rect width="24" height="24" fill="#E5E5E5"/>
<g id="2. &#208;&#157;&#208;&#176;&#208;&#177;&#208;&#190;&#209;&#128;&#209;&#139; 320" clip-path="url(#clip0_0_1)">
<rect width="320" height="4799" transform="translate(-276 -15)" fill="#FAFAFA"/>
<g id="00. first screen">
<g id="bg">
<path id="bg shadow" opacity="0.19" d="M-342 -15H138.25V647.13C138.25 647.13 53.4805 700.707 -107.382 593.395C-268.244 486.083 -342 736.155 -342 736.155V-15Z" fill="url(#paint0_linear_0_1)" fill-opacity="0.5"/>
<g id="bg color">
<path d="M-342 -15H138.25V551.797C138.25 551.797 107.663 734.261 -53.1992 639.377C-214.061 544.492 -342 639.377 -342 639.377V-15Z" fill="url(#paint1_linear_0_1)"/>
</g>
</g>
<g id="Banner">
<mask id="mask0_0_1" style="mask-type:alpha" maskUnits="userSpaceOnUse" x="-342" y="-15" width="480" height="681">
<g id="bg color_2">
<path d="M-342 -15H138V551.193C138 551.193 107.429 733.463 -53.3497 638.68C-214.128 543.896 -342 638.68 -342 638.68V-15Z" fill="url(#paint2_linear_0_1)"/>
</g>
</mask>
<g mask="url(#mask0_0_1)">
<rect id="bg_2" x="-276" y="-15" width="480" height="50" fill="#FAFBFD" fill-opacity="0.44"/>
</g>
</g>
<g id=" bars">
<path id="&#240;&#159;&#140;&#136; COLOR" fill-rule="evenodd" clip-rule="evenodd" d="M3 8H21C21.5523 8 22 7.55228 22 7C22 6.44771 21.5523 6 21 6H3C2.44772 6 2 6.44771 2 7C2 7.55228 2.44772 8 3 8ZM21.0001 15.9998H3.00006C2.44777 15.9998 2.00006 16.4475 2.00006 16.9998C2.00006 17.552 2.44777 17.9998 3.00006 17.9998H21.0001C21.5523 17.9998 22.0001 17.552 22.0001 16.9998C22.0001 16.4475 21.5523 15.9998 21.0001 15.9998ZM21.0001 11.0002H3.00006C2.44777 11.0002 2.00006 11.448 2.00006 12.0002C2.00006 12.5525 2.44777 13.0002 3.00006 13.0002H21.0001C21.5523 13.0002 22.0001 12.5525 22.0001 12.0002C22.0001 11.448 21.5523 11.0002 21.0001 11.0002Z" fill="#272525"/>
</g>
</g>
</g>
<defs>
<linearGradient id="paint0_linear_0_1" x1="-389.617" y1="807.748" x2="395.467" y2="228.071" gradientUnits="userSpaceOnUse">
<stop stop-color="#9796F0"/>
<stop offset="1" stop-color="#FBC7D4"/>
</linearGradient>
<linearGradient id="paint1_linear_0_1" x1="-413.114" y1="713.123" x2="307.057" y2="85.5257" gradientUnits="userSpaceOnUse">
<stop stop-color="#9796F0"/>
<stop offset="1" stop-color="#FFE0E8"/>
</linearGradient>
<linearGradient id="paint2_linear_0_1" x1="-413.077" y1="712.347" x2="306.38" y2="85.0299" gradientUnits="userSpaceOnUse">
<stop stop-color="#9796F0"/>
<stop offset="1" stop-color="#FFE0E8"/>
</linearGradient>
<clipPath id="clip0_0_1">
<rect width="320" height="4799" fill="white" transform="translate(-276 -15)"/>
</clipPath>
</defs>
</svg>
