<svg width="50" height="50" viewBox="0 0 50 50" fill="none" xmlns="http://www.w3.org/2000/svg">
<g id=" times-circle">
<path id="&#240;&#159;&#140;&#136; COLOR" fill-rule="evenodd" clip-rule="evenodd" d="M30.4966 19.5029C30.2184 19.2224 29.8397 19.0646 29.4446 19.0646C29.0495 19.0646 28.6708 19.2224 28.3926 19.5029L24.9993 22.911L21.6061 19.5029C21.0251 18.9219 20.0831 18.9219 19.502 19.5029C18.921 20.084 18.921 21.026 19.502 21.607L22.9101 25.0002L19.502 28.3935C19.2215 28.6717 19.0637 29.0504 19.0637 29.4455C19.0637 29.8406 19.2215 30.2193 19.502 30.4976C19.7802 30.7781 20.159 30.9359 20.5541 30.9359C20.9492 30.9359 21.3279 30.7781 21.6061 30.4976L24.9993 27.0895L28.3926 30.4976C28.6708 30.7781 29.0495 30.9359 29.4446 30.9359C29.8397 30.9359 30.2184 30.7781 30.4966 30.4976C30.7772 30.2193 30.9349 29.8406 30.9349 29.4455C30.9349 29.0504 30.7772 28.6717 30.4966 28.3935L27.0886 25.0002L30.4966 21.607C30.7772 21.3288 30.9349 20.9501 30.9349 20.555C30.9349 20.1599 30.7772 19.7812 30.4966 19.5029ZM35.476 14.524C31.7557 10.6721 26.2465 9.12725 21.0658 10.4833C15.8852 11.8393 11.8393 15.8852 10.4833 21.0658C9.12725 26.2465 10.6721 31.7557 14.524 35.476C18.2443 39.3279 23.7535 40.8727 28.9342 39.5167C34.1148 38.1607 38.1607 34.1148 39.5167 28.9342C40.8727 23.7535 39.3279 18.2443 35.476 14.524ZM33.3877 33.3866C29.3913 37.3875 23.1252 38.0084 18.4213 34.8695C13.7174 31.7306 11.8857 25.7062 14.0463 20.4802C16.2068 15.2542 21.758 12.2821 27.3051 13.3813C32.8523 14.4804 36.8506 19.3449 36.855 24.9999C36.8657 28.1463 35.6172 31.1663 33.3877 33.3866Z" fill="#3E3E3E"/>
</g>
</svg>
