<svg width="60" height="60" viewBox="0 0 60 60" fill="none" xmlns="http://www.w3.org/2000/svg">
<g id=" times-circle">
<path id="&#240;&#159;&#140;&#136; COLOR" fill-rule="evenodd" clip-rule="evenodd" d="M39.2742 20.7254C38.8048 20.2521 38.1658 19.9859 37.4992 19.9859C36.8326 19.9859 36.1937 20.2521 35.7242 20.7254L29.9992 26.4754L24.2742 20.7254C23.2939 19.745 21.7045 19.745 20.7242 20.7254C19.7439 21.7057 19.7439 23.295 20.7242 24.2754L26.4742 30.0004L20.7242 35.7254C20.251 36.1948 19.9847 36.8338 19.9847 37.5004C19.9847 38.167 20.251 38.8059 20.7242 39.2754C21.1936 39.7486 21.8326 40.0149 22.4992 40.0149C23.1658 40.0149 23.8048 39.7486 24.2742 39.2754L29.9992 33.5254L35.7242 39.2754C36.1937 39.7486 36.8326 40.0149 37.4992 40.0149C38.1658 40.0149 38.8048 39.7486 39.2742 39.2754C39.7475 38.8059 40.0137 38.167 40.0137 37.5004C40.0137 36.8338 39.7475 36.1948 39.2742 35.7254L33.5242 30.0004L39.2742 24.2754C39.7475 23.8059 40.0137 23.1669 40.0137 22.5004C40.0137 21.8338 39.7475 21.1948 39.2742 20.7254ZM47.6742 12.3252C41.3974 5.82629 32.1023 3.21989 23.3616 5.50778C14.6208 7.79566 7.79469 14.6218 5.5068 23.3625C3.21892 32.1033 5.82532 41.3983 12.3242 47.6752C18.6011 54.1741 27.8962 56.7805 36.6369 54.4926C45.3777 52.2048 52.2038 45.3786 54.4917 36.6379C56.7796 27.8972 54.1731 18.6021 47.6742 12.3252ZM44.1493 44.1502C37.4065 50.9005 26.8344 51.948 18.8981 46.6521C10.9618 41.3563 7.8713 31.1919 11.5166 22.3746C15.1619 13.5574 24.5277 8.54281 33.8868 10.3974C43.2459 12.2519 49.9918 20.4591 49.9993 30.0002C50.0173 35.3088 47.9108 40.4041 44.1493 44.1502Z" fill="#3E3E3E"/>
</g>
</svg>
