<svg width="16" height="16" viewBox="0 0 16 16" fill="none" xmlns="http://www.w3.org/2000/svg">
<path fill-rule="evenodd" clip-rule="evenodd" d="M11.9154 9.5075C13.3852 7.61976 13.2525 4.88864 11.5171 3.15325C9.63793 1.27411 6.59124 1.27411 4.71209 3.15325C2.83295 5.0324 2.83295 8.07909 4.71209 9.95824C6.44747 11.6936 9.1786 11.8264 11.0663 10.3565C11.0745 10.3657 11.083 10.3747 11.0918 10.3835L13.6436 12.9354C13.8785 13.1703 14.2594 13.1703 14.4943 12.9354C14.7291 12.7005 14.7291 12.3197 14.4943 12.0848L11.9424 9.53292C11.9336 9.52412 11.9246 9.51564 11.9154 9.5075ZM10.6665 4.00388C12.0758 5.41323 12.0758 7.69826 10.6665 9.10761C9.25709 10.517 6.97207 10.517 5.56271 9.10761C4.15336 7.69826 4.15336 5.41323 5.56271 4.00388C6.97207 2.59452 9.25709 2.59452 10.6665 4.00388Z" fill="#8E8E8E"/>
</svg>
