<svg width="32" height="31" viewBox="0 0 32 31" fill="none" xmlns="http://www.w3.org/2000/svg">
<rect width="32" height="31" fill="#E5E5E5"/>
<g id="1. &#208;&#147;&#208;&#187;&#208;&#176;&#208;&#178;&#208;&#189;&#208;&#176;&#209;&#143;" clip-path="url(#clip0_0_1)">
<rect width="1920" height="4658" transform="translate(-626 -908)" fill="#FAFAFA"/>
<g id="00. first screen">
<g id="bg">
<path id="bg shadow" opacity="0.19" d="M-626 -911H1294V90.363C1294 90.363 955.098 171.39 311.985 9.09814C-331.129 -153.193 -626 225 -626 225V-911Z" fill="url(#paint0_linear_0_1)" fill-opacity="0.5"/>
<g id="bg color">
<path d="M-626 -911H1294V-53.8114C1294 -53.8114 1171.71 222.135 528.601 78.6382C-114.512 -64.8591 -626 78.6382 -626 78.6382V-911Z" fill="#FAFAFA"/>
</g>
</g>
</g>
<g id="02.Top popular">
<path id="Rectangle 85" d="M-626.002 -28.6123C339.5 -136.113 1121.8 8.45839 1295 -64.6118V738.888C729 920.387 -242.5 724.888 -635.5 796.888C-635.5 796.888 -1591.5 78.8882 -626.002 -28.6123Z" fill="#FAFAFA"/>
<g id="Title Top Popular">
<path id="Vector" d="M30.0641 10.0746L23.1316 8.73097C22.4649 8.59698 21.7981 8.19406 21.5322 7.52222L18.0663 1.20875C17.1327 -0.402916 14.7335 -0.402916 13.9339 1.20875L10.468 7.52222C10.0681 8.19406 9.53437 8.59698 8.86854 8.73097L1.93609 10.0746C0.069775 10.4776 -0.597068 12.761 0.602595 14.1048L5.40182 19.3436C5.93466 19.8805 6.06857 20.5523 6.06857 21.2242L5.26884 28.3436C5.00195 30.2242 7.00218 31.5677 8.60163 30.7611L15.0004 27.6717C15.6671 27.4028 16.3339 27.4028 16.9997 27.6717L23.3984 30.7611C25.1317 31.5669 26.998 30.2242 26.7312 28.3436L25.9315 21.2242C25.7985 20.5523 26.0644 19.7465 26.5982 19.3436L31.3974 14.1048C32.597 12.6271 31.9303 10.4776 30.0639 10.0746H30.0641Z" fill="#1FAB8A"/>
</g>
</g>
</g>
<defs>
<linearGradient id="paint0_linear_0_1" x1="-816.368" y1="333.272" x2="191.946" y2="-1634.84" gradientUnits="userSpaceOnUse">
<stop stop-color="#9796F0"/>
<stop offset="1" stop-color="#FBC7D4"/>
</linearGradient>
<linearGradient id="paint1_linear_0_1" x1="-910.306" y1="190.167" x2="-107.133" y2="-1660.12" gradientUnits="userSpaceOnUse">
<stop stop-color="#9796F0"/>
<stop offset="1" stop-color="#FFE0E8"/>
</linearGradient>
<clipPath id="clip0_0_1">
<rect width="1920" height="4658" fill="white" transform="translate(-626 -908)"/>
</clipPath>
</defs>
</svg>
