<svg width="25" height="25" viewBox="0 0 25 25" fill="none" xmlns="http://www.w3.org/2000/svg">
<path fill-rule="evenodd" clip-rule="evenodd" d="M15.922 12.7561C17.9366 11.1711 18.7253 8.4834 17.8866 6.06109C17.0479 3.63878 14.7662 2.01416 12.2028 2.01416C9.63944 2.01416 7.35772 3.63878 6.51905 6.06109C5.68038 8.4834 6.46907 11.1711 8.48368 12.7561C5.05232 14.1308 2.65594 17.2823 2.24832 20.9563C2.18742 21.5099 2.58687 22.0081 3.14052 22.069C3.69417 22.1299 4.19236 21.7305 4.25326 21.1768C4.70901 17.1196 8.14012 14.0523 12.2229 14.0523C16.3057 14.0523 19.7368 17.1196 20.1925 21.1768C20.249 21.687 20.6817 22.0722 21.195 22.069H21.3053C21.8522 22.0061 22.2461 21.5138 22.1874 20.9663C21.7778 17.2816 19.368 14.1237 15.922 12.7561ZM12.2013 12.0442C9.98669 12.0442 8.19141 10.2489 8.19141 8.03429C8.19141 5.8197 9.98669 4.02441 12.2013 4.02441C14.4159 4.02441 16.2112 5.8197 16.2112 8.03429C16.2112 9.09777 15.7887 10.1177 15.0367 10.8697C14.2847 11.6217 13.2648 12.0442 12.2013 12.0442Z" fill="#272525"/>
</svg>
