<svg width="41" height="40" viewBox="0 0 41 40" fill="none" xmlns="http://www.w3.org/2000/svg">
<path fill-rule="evenodd" clip-rule="evenodd" d="M26.245 21.1831C29.6027 18.5479 30.9171 14.0795 29.5194 10.0522C28.1216 6.025 24.3187 3.32397 20.0464 3.32397C15.7741 3.32397 11.9712 6.025 10.5734 10.0522C9.17563 14.0795 10.4901 18.5479 13.8478 21.1831C8.12887 23.4687 4.1349 28.7083 3.45554 34.8165C3.35403 35.7369 4.01978 36.5652 4.94253 36.6665C5.86528 36.7677 6.6956 36.1036 6.7971 35.1831C7.55669 28.4377 13.2752 23.3382 20.0798 23.3382C26.8844 23.3382 32.6029 28.4377 33.3625 35.1831C33.4566 36.0314 34.1778 36.6716 35.0333 36.6665H35.2171C36.1287 36.5618 36.7851 35.7433 36.6874 34.8331C36.0047 28.707 31.9883 23.4569 26.245 21.1831ZM20.0435 19.9995C16.3525 19.9995 13.3604 17.0148 13.3604 13.3329C13.3604 9.65097 16.3525 6.6662 20.0435 6.6662C23.7345 6.6662 26.7266 9.65097 26.7266 13.3329C26.7266 15.101 26.0225 16.7967 24.7692 18.0469C23.5158 19.2972 21.8159 19.9995 20.0435 19.9995Z" fill="#272525"/>
</svg>
