<svg width="2366" height="776" viewBox="0 0 2366 776" fill="none" xmlns="http://www.w3.org/2000/svg">
<g opacity="0.5" filter="url(#filter0_d_1_4)">
<path d="M619.445 30C399.445 29.9999 269.523 76.3136 152.944 205.5C-3.12077 378.441 19.877 502.742 210.945 636C360.47 740.284 459.147 650.127 641.445 650.5C878.215 650.984 1016.23 688.668 1252.95 694C1455.16 698.555 1654.48 656.592 1855.45 679.5C1991.35 694.992 2060.39 728.9 2187.95 679.5C2398.62 597.909 2318.19 457.748 2158.44 298C2052.94 192.5 1955.41 143.801 1817.44 131C1612.83 112.015 1505.73 238.347 1300.44 229C1033.37 216.839 886.797 30.0001 619.445 30Z" fill="url(#paint0_linear_1_4)"/>
</g>
<defs>
<filter id="filter0_d_1_4" x="0" y="0" width="2365.08" height="775.319" filterUnits="userSpaceOnUse" color-interpolation-filters="sRGB">
<feFlood flood-opacity="0" result="BackgroundImageFix"/>
<feColorMatrix in="SourceAlpha" type="matrix" values="0 0 0 0 0 0 0 0 0 0 0 0 0 0 0 0 0 0 127 0" result="hardAlpha"/>
<feOffset dy="20"/>
<feGaussianBlur stdDeviation="25"/>
<feColorMatrix type="matrix" values="0 0 0 0 0 0 0 0 0 0 0 0 0 0 0 0 0 0 0.1 0"/>
<feBlend mode="normal" in2="BackgroundImageFix" result="effect1_dropShadow_1_4"/>
<feBlend mode="normal" in="SourceGraphic" in2="effect1_dropShadow_1_4" result="shape"/>
</filter>
<linearGradient id="paint0_linear_1_4" x1="-285.404" y1="751.279" x2="42.6751" y2="-609.98" gradientUnits="userSpaceOnUse">
<stop stop-color="#9796F0"/>
<stop offset="1" stop-color="#FFE0E8"/>
</linearGradient>
</defs>
</svg>
