<svg width="161" height="24" viewBox="0 0 161 24" fill="none" xmlns="http://www.w3.org/2000/svg">
<path d="M8.424 11.8537C9.036 12.1177 9.522 12.5197 9.882 13.0597C10.254 13.5877 10.44 14.1937 10.44 14.8777C10.44 15.8497 10.098 16.6777 9.414 17.3617C8.73 18.0457 7.902 18.3877 6.93 18.3877H1.44V5.78769H6.516C7.452 5.78769 8.25 6.12369 8.91 6.79569C9.57 7.45569 9.9 8.24769 9.9 9.17169C9.9 10.3477 9.408 11.2417 8.424 11.8537ZM6.516 6.9757H2.7V11.3677H6.516C7.104 11.3677 7.602 11.1577 8.01 10.7377C8.43 10.3057 8.64 9.78369 8.64 9.17169C8.64 8.57169 8.43 8.05569 8.01 7.62369C7.602 7.19169 7.104 6.9757 6.516 6.9757ZM6.93 17.1997C7.554 17.1997 8.082 16.9777 8.514 16.5337C8.958 16.0777 9.18 15.5257 9.18 14.8777C9.18 14.2417 8.958 13.6957 8.514 13.2397C8.082 12.7837 7.554 12.5557 6.93 12.5557H2.7V17.1997H6.93ZM17.7861 18.6037C16.4301 18.6037 15.3021 18.1537 14.4021 17.2537C13.5021 16.3417 13.0521 15.2197 13.0521 13.8877C13.0521 12.5557 13.5021 11.4397 14.4021 10.5397C15.3021 9.62769 16.4301 9.17169 17.7861 9.17169C18.6741 9.17169 19.4721 9.38769 20.1801 9.8197C20.8881 10.2397 21.4041 10.8097 21.7281 11.5297L20.7561 12.0877C20.5161 11.5477 20.1261 11.1217 19.5861 10.8097C19.0581 10.4857 18.4581 10.3237 17.7861 10.3237C16.7901 10.3237 15.9501 10.6717 15.2661 11.3677C14.5821 12.0517 14.2401 12.8917 14.2401 13.8877C14.2401 14.8837 14.5821 15.7297 15.2661 16.4257C15.9501 17.1097 16.7901 17.4517 17.7861 17.4517C18.4581 17.4517 19.0581 17.2957 19.5861 16.9837C20.1141 16.6597 20.5281 16.2277 20.8281 15.6877L21.8181 16.2637C21.4461 16.9837 20.9001 17.5537 20.1801 17.9737C19.4601 18.3937 18.6621 18.6037 17.7861 18.6037ZM28.7639 9.17169C30.0959 9.17169 31.1699 9.64569 31.9859 10.5937C32.8139 11.5297 33.2279 12.6397 33.2279 13.9237C33.2279 14.0557 33.2159 14.2417 33.1919 14.4817H25.2899C25.4099 15.3937 25.7939 16.1197 26.4419 16.6597C27.1019 17.1877 27.9119 17.4517 28.8719 17.4517C29.5559 17.4517 30.1439 17.3137 30.6359 17.0377C31.1399 16.7497 31.5179 16.3777 31.7699 15.9217L32.8139 16.5337C32.4179 17.1697 31.8779 17.6737 31.1939 18.0457C30.5099 18.4177 29.7299 18.6037 28.8539 18.6037C27.4379 18.6037 26.2859 18.1597 25.3979 17.2717C24.5099 16.3837 24.0659 15.2557 24.0659 13.8877C24.0659 12.5437 24.5039 11.4217 25.3799 10.5217C26.2559 9.62169 27.3839 9.17169 28.7639 9.17169ZM28.7639 10.3237C27.8279 10.3237 27.0419 10.6057 26.4059 11.1697C25.7819 11.7217 25.4099 12.4417 25.2899 13.3297H32.0039C31.8839 12.3817 31.5179 11.6437 30.9059 11.1157C30.2939 10.5877 29.5799 10.3237 28.7639 10.3237ZM48.4376 9.3877V10.5397H45.2516V18.3877H44.0636V10.5397H40.8776V9.3877H48.4376ZM58.2457 17.2537C57.3337 18.1537 56.2177 18.6037 54.8977 18.6037C53.5777 18.6037 52.4557 18.1537 51.5317 17.2537C50.6197 16.3417 50.1637 15.2197 50.1637 13.8877C50.1637 12.5557 50.6197 11.4397 51.5317 10.5397C52.4557 9.62769 53.5777 9.17169 54.8977 9.17169C56.2177 9.17169 57.3337 9.62769 58.2457 10.5397C59.1697 11.4397 59.6317 12.5557 59.6317 13.8877C59.6317 15.2197 59.1697 16.3417 58.2457 17.2537ZM52.3777 16.4257C53.0617 17.1097 53.9017 17.4517 54.8977 17.4517C55.8937 17.4517 56.7337 17.1097 57.4177 16.4257C58.1017 15.7297 58.4437 14.8837 58.4437 13.8877C58.4437 12.8917 58.1017 12.0517 57.4177 11.3677C56.7337 10.6717 55.8937 10.3237 54.8977 10.3237C53.9017 10.3237 53.0617 10.6717 52.3777 11.3677C51.6937 12.0517 51.3517 12.8917 51.3517 13.8877C51.3517 14.8837 51.6937 15.7297 52.3777 16.4257ZM68.5138 13.7617C69.4978 14.1217 69.9898 14.8237 69.9898 15.8677C69.9898 16.5997 69.7438 17.2057 69.2518 17.6857C68.7718 18.1537 68.0758 18.3877 67.1638 18.3877H62.7898V9.3877H66.8038C67.6798 9.3877 68.3578 9.6157 68.8378 10.0717C69.3178 10.5157 69.5578 11.0917 69.5578 11.7997C69.5578 12.6997 69.2098 13.3537 68.5138 13.7617ZM66.8038 10.5397H63.9778V13.2757H66.8038C67.8478 13.2757 68.3698 12.8077 68.3698 11.8717C68.3698 11.4517 68.2318 11.1277 67.9558 10.8997C67.6918 10.6597 67.3078 10.5397 66.8038 10.5397ZM67.1638 17.2357C67.6918 17.2357 68.0938 17.1097 68.3698 16.8577C68.6578 16.6057 68.8018 16.2517 68.8018 15.7957C68.8018 15.3757 68.6578 15.0457 68.3698 14.8057C68.0938 14.5537 67.6918 14.4277 67.1638 14.4277H63.9778V17.2357H67.1638ZM80.6998 9.3877H81.8878V18.3877H80.6998V16.6237C79.8718 17.9437 78.6598 18.6037 77.0638 18.6037C75.7798 18.6037 74.6818 18.1477 73.7698 17.2357C72.8698 16.3237 72.4198 15.2077 72.4198 13.8877C72.4198 12.5677 72.8698 11.4517 73.7698 10.5397C74.6818 9.62769 75.7798 9.17169 77.0638 9.17169C78.6598 9.17169 79.8718 9.83169 80.6998 11.1517V9.3877ZM74.6338 16.4257C75.3178 17.1097 76.1578 17.4517 77.1538 17.4517C78.1498 17.4517 78.9898 17.1097 79.6738 16.4257C80.3578 15.7297 80.6998 14.8837 80.6998 13.8877C80.6998 12.8917 80.3578 12.0517 79.6738 11.3677C78.9898 10.6717 78.1498 10.3237 77.1538 10.3237C76.1578 10.3237 75.3178 10.6717 74.6338 11.3677C73.9498 12.0517 73.6078 12.8917 73.6078 13.8877C73.6078 14.8837 73.9498 15.7297 74.6338 16.4257ZM90.3971 9.17169C91.6811 9.17169 92.7731 9.62769 93.6731 10.5397C94.5851 11.4517 95.0411 12.5677 95.0411 13.8877C95.0411 15.2077 94.5851 16.3237 93.6731 17.2357C92.7731 18.1477 91.6811 18.6037 90.3971 18.6037C88.8011 18.6037 87.5891 17.9437 86.7611 16.6237V21.9877H85.5731V9.3877H86.7611V11.1517C87.5891 9.83169 88.8011 9.17169 90.3971 9.17169ZM87.7871 16.4257C88.4711 17.1097 89.3111 17.4517 90.3071 17.4517C91.3031 17.4517 92.1431 17.1097 92.8271 16.4257C93.5111 15.7297 93.8531 14.8837 93.8531 13.8877C93.8531 12.8917 93.5111 12.0517 92.8271 11.3677C92.1431 10.6717 91.3031 10.3237 90.3071 10.3237C89.3111 10.3237 88.4711 10.6717 87.7871 11.3677C87.1031 12.0517 86.7611 12.8917 86.7611 13.8877C86.7611 14.8837 87.1031 15.7297 87.7871 16.4257ZM101.84 12.8077C102.68 12.8077 103.388 13.0717 103.964 13.5997C104.552 14.1157 104.846 14.7817 104.846 15.5977C104.846 16.4137 104.552 17.0857 103.964 17.6137C103.388 18.1297 102.68 18.3877 101.84 18.3877H98.1865V9.3877H99.3745V12.8077H101.84ZM106.106 9.3877H107.294V18.3877H106.106V9.3877ZM101.84 17.2357C102.344 17.2357 102.77 17.0857 103.118 16.7857C103.478 16.4857 103.658 16.0897 103.658 15.5977C103.658 15.1057 103.478 14.7097 103.118 14.4097C102.77 14.1097 102.344 13.9597 101.84 13.9597H99.3745V17.2357H101.84Z" fill="#272525"/>
<path d="M160.354 12.2413C160.549 12.046 160.549 11.7294 160.354 11.5341L157.172 8.35216C156.976 8.1569 156.66 8.1569 156.464 8.35216C156.269 8.54743 156.269 8.86401 156.464 9.05927L159.293 11.8877L156.464 14.7161C156.269 14.9114 156.269 15.228 156.464 15.4232C156.66 15.6185 156.976 15.6185 157.172 15.4232L160.354 12.2413ZM129 12.3877L160 12.3877L160 11.3877L129 11.3877L129 12.3877Z" fill="#272525"/>
</svg>
